<svg width="129px" height="171px" viewBox="0 0 129 171" version="1.1" xmlns="http://www.w3.org/2000/svg" xmlns:xlink="http://www.w3.org/1999/xlink">
    <g id="42i" stroke="none" stroke-width="1" fill="none" fill-rule="evenodd">
        <g id="Desktop-HD" transform="translate(-655.000000, -109.000000)" fill="#C11971">
            <path d="M738.359697,250.96514 C735.286697,250.95514 732.559697,250.93914 729.693697,250.93914 C729.043697,250.93914 728.333697,250.04214 728.482697,248.17914 C728.687697,245.60914 730.742697,242.76114 733.110697,242.39114 C735.533697,242.01214 737.570697,242.91914 738.611697,244.75714 C739.351697,246.06514 739.441697,248.38514 739.490697,249.52114 C739.532697,250.49914 739.286697,250.96814 738.359697,250.96514 M752.317697,245.73614 C748.608697,247.23014 750.234697,242.94814 751.437697,240.78314 C753.708697,236.70214 751.551697,235.00814 748.699697,237.35014 C746.216697,239.38814 745.126697,240.11614 743.673697,238.22714 C741.494697,235.39114 737.974697,233.57514 731.905697,234.39714 C727.043697,235.05614 724.012697,237.26414 721.920697,240.18614 C719.131697,244.07914 718.141697,249.92714 717.806697,251.90014 C717.329697,254.71714 716.478697,256.33514 714.878697,259.22914 C713.883697,261.02914 714.567697,263.42914 716.865697,261.71514 C717.232697,261.44114 718.003697,260.84014 718.671697,260.66314 C719.492697,260.44614 719.806697,261.54814 719.200697,262.74814 C718.671697,263.79514 718.021697,264.89114 717.415697,265.89414 C715.787697,268.58714 717.908697,271.70714 720.760697,269.24714 C722.494697,267.75314 723.642697,267.33914 724.182697,267.72714 C724.634697,268.05314 724.593697,268.72814 724.180697,270.04214 C723.007697,273.77114 724.976697,275.56714 726.949697,276.68114 C729.777697,278.19414 733.290697,278.76314 737.143697,277.97914 C741.635697,277.06514 745.828697,273.57414 746.752697,268.73314 C747.560697,264.49614 745.230697,263.42314 743.251697,263.44414 C739.195697,263.48614 738.638697,265.73214 737.919697,267.41214 C737.104697,269.31514 735.312697,270.07514 733.018697,269.75814 C730.987697,269.47714 729.183697,267.80514 728.947697,265.59114 C728.725697,263.51514 728.725697,262.15114 728.642697,259.59914 C728.599697,258.29114 729.481697,257.51314 730.704697,257.51914 C733.746697,257.53214 741.978697,257.53114 744.519697,257.52814 C746.318697,257.52714 748.191697,256.73214 749.113697,255.65314 C750.626697,253.88614 753.419697,250.86214 754.363697,248.91214 C755.509697,246.54414 754.747697,244.75714 752.317697,245.73614 M692.028697,146.54014 C692.022697,151.36314 692.463697,154.78014 694.197697,153.60114 C696.276697,152.18814 698.066697,153.62614 696.631697,156.61714 C695.712697,158.53414 695.319697,159.35714 694.340697,161.26714 C693.269697,163.35914 693.163697,165.30814 694.489697,167.24314 C695.902697,169.30514 699.211697,171.10614 701.647697,171.59014 C704.075697,172.07214 706.544697,171.68014 709.148697,169.82114 C711.024697,168.48314 711.907697,166.07514 712.091697,164.72914 C712.493697,161.78914 712.269697,157.46714 709.871697,160.10614 C708.153697,161.99614 705.226697,163.48114 703.311697,162.72514 C702.302697,162.20414 701.820697,161.18214 701.583697,159.68414 C701.378697,158.38814 701.428697,138.64014 701.428697,129.34914 L701.428697,129.35114 C701.428697,126.88214 701.657697,120.22314 704.358697,115.83414 C707.309697,111.03814 706.784697,108.85814 705.013697,109.00714 C703.495697,109.13614 702.198697,109.61514 699.922697,110.58214 C698.014697,111.39214 695.968697,111.53514 695.290697,111.56114 C694.738697,111.58114 693.953697,111.62914 693.577697,111.78214 C692.594697,112.18214 692.039697,113.27514 692.037697,115.09514 C692.032697,122.58714 692.036697,129.33414 692.037697,136.82414 C692.038697,140.06314 692.027697,143.30114 692.023697,146.53914 C692.026697,146.53914 692.028697,146.53714 692.028697,146.54014 M686.307697,272.28914 C685.286697,271.77714 682.884697,273.45314 682.852697,274.90514 C682.819697,276.35714 684.730697,276.85414 686.681697,275.78314 C688.007697,275.05514 687.660697,272.96714 686.307697,272.28914 M710.471697,269.22214 C709.389697,270.58814 707.344697,271.30814 705.576697,271.07414 C703.250697,270.42314 702.499697,268.47314 702.520697,265.63914 C702.565697,259.58614 702.531697,253.53214 702.531697,247.47914 C702.531697,244.71214 702.615697,244.38714 704.559697,244.40314 C706.176697,244.41614 707.978697,244.33414 708.822697,243.87314 C709.582697,243.45814 710.197697,242.39114 710.197697,240.56914 C710.197697,237.86514 708.970697,237.00714 707.974697,236.75614 C707.293697,236.58414 705.642697,236.67514 704.933697,236.67414 C702.294697,236.67114 702.323697,236.67014 702.280697,233.95814 C702.225697,230.48114 702.289697,228.79914 701.736697,227.94714 C701.268697,227.22614 700.255697,226.42214 697.952697,226.42214 C695.543697,226.42214 694.377697,227.51714 693.937697,228.35014 C693.263697,229.62914 693.553697,232.11614 693.597697,234.98914 C693.616697,236.25214 693.121697,236.70414 691.861697,236.70014 C691.037697,236.69714 689.780697,236.78014 689.022697,236.98114 C688.057697,237.23614 687.469697,238.67114 687.469697,240.54614 C687.469697,242.99314 688.482697,243.91914 689.246697,244.19614 C690.045697,244.48614 691.038697,244.39914 691.349697,244.38914 C692.800697,244.34214 693.135697,245.08514 693.101697,246.53514 C693.015697,250.17814 693.118697,259.56014 693.088697,261.41914 C693.058697,263.27814 692.361697,265.96114 690.097697,268.81314 C686.804697,272.96014 689.390697,273.50214 692.467697,272.45414 C693.405697,272.13514 693.949697,272.63414 694.489697,273.54614 C694.702697,273.88214 695.972697,275.91814 697.787697,277.30614 C699.086697,278.30014 702.195697,279.54014 704.897697,279.38914 C707.131697,279.26414 709.390697,278.55514 710.800697,277.15614 C712.507697,275.46214 713.264697,273.57414 713.586697,272.31514 C714.713697,267.89214 712.937697,266.11114 710.471697,269.22214 M684.269697,222.16014 C685.867697,216.98714 688.297697,209.36714 690.410697,202.69314 C692.345697,196.58014 694.154697,190.88514 696.045697,184.88414 C696.935697,181.19614 695.610697,179.77214 694.367697,179.18414 C693.775697,178.90414 692.901697,178.85714 691.906697,178.83714 C687.927697,178.83714 686.556697,179.43114 682.932697,182.72014 C679.921697,185.45414 677.938697,190.15614 679.924697,190.89414 C682.102697,191.70314 684.591697,189.00714 683.858697,192.01714 C682.506697,196.91114 681.132697,201.85014 679.853697,206.45714 C679.547697,207.37614 678.824697,207.21614 678.661697,206.83014 C678.450697,206.33214 677.066697,201.45414 676.538697,199.59014 C674.887697,193.76514 673.320697,188.21214 671.504697,182.15714 C670.921697,180.36214 670.189697,179.05314 668.494697,178.83714 C666.192697,178.54314 664.641697,178.36314 662.424697,178.85914 C659.264697,179.42714 657.904697,182.93814 655.773697,186.53914 C653.958697,189.60714 655.542697,191.91214 658.390697,190.69514 C662.514697,188.93314 663.314697,188.69514 664.677697,192.95114 C666.876697,199.77314 669.070697,206.59714 671.253697,213.42414 L671.254697,213.40814 C672.120697,215.81014 672.923697,217.00014 674.096697,216.43514 C676.028697,215.50614 676.932697,214.44814 677.975697,215.41214 C678.911697,216.27614 678.439697,217.35814 677.255697,219.60614 C676.984697,220.12114 675.880697,222.29814 675.735697,222.77814 C675.348697,223.77014 674.905697,225.84614 679.125697,226.07714 C683.343697,226.30814 684.047697,222.88414 684.269697,222.16014 M711.915697,158.19214 C713.289697,158.87814 715.692697,156.63914 715.764697,155.13414 C715.866697,153.00014 713.728697,151.17614 712.354697,152.85514 C710.745697,154.82314 710.978697,157.72414 711.915697,158.19214 M783.244697,208.24914 C782.075697,207.83514 779.791697,209.66214 779.799697,211.30714 C779.808697,212.78414 781.041697,213.51614 782.658697,212.87714 C784.303697,212.22614 784.381697,208.65214 783.244697,208.24914 M733.126697,136.99614 C736.714697,136.43614 739.369697,138.74314 739.495697,142.54914 C739.513697,143.11214 739.526697,143.85514 739.530697,144.65614 C739.532697,145.21714 739.169697,145.56214 738.791697,145.57014 C735.340697,145.57014 732.879697,145.58614 729.709697,145.54414 C729.413697,145.54114 728.981697,145.24514 728.849697,144.97114 C727.502697,142.17314 730.040697,137.47814 733.126697,136.99614 M715.835697,148.55314 C718.472697,147.40314 719.150697,148.89514 719.369697,152.10814 C719.388697,152.73214 719.747697,158.06914 719.944697,159.94814 C720.399697,164.27314 722.200697,167.68814 724.921697,169.92414 C725.950697,170.65214 727.506697,171.40914 729.914697,169.42814 C731.420697,168.18914 732.498697,167.62914 733.984697,168.03714 C734.760697,168.25014 734.584697,169.12314 733.984697,170.51914 C733.408697,171.86014 734.466697,172.77514 735.673697,172.71114 C737.422697,172.61914 739.890697,171.96614 741.723697,170.72114 C743.593697,169.45214 745.088697,167.70314 745.992697,165.67314 L745.993697,165.67314 C745.993697,165.67314 746.671697,164.35114 747.327697,161.38714 C748.447697,156.33514 741.878697,156.45414 740.131697,159.13614 C738.724697,161.29814 738.091697,161.88814 737.471697,162.67414 C736.241697,164.13314 734.777697,164.70514 732.827697,164.34214 C730.764697,163.95714 729.136697,162.19214 728.910697,159.79714 C728.719697,157.79314 728.806697,155.76414 728.692697,153.75114 C728.618697,152.42714 729.213697,152.08114 730.438697,152.11614 C732.847697,152.18614 742.158697,152.12014 744.699697,152.08614 C746.290697,152.06514 747.693697,150.95014 747.693697,148.95414 C747.621697,145.57614 747.762697,143.13214 747.168697,139.84114 C746.748697,137.52314 745.575697,135.09414 744.066697,133.26914 C740.462697,128.90714 735.472697,128.12814 730.213697,129.31814 C727.905697,129.84014 725.996697,130.81614 724.470697,132.16814 L724.470697,132.16214 C721.810697,134.42214 721.176697,136.37214 717.713697,139.74414 C715.035697,142.35214 713.253697,143.83514 712.473697,145.53714 C711.458697,147.75514 712.577697,149.97314 715.835697,148.55314 M775.048697,215.64014 C772.814697,216.83614 771.879697,215.62214 771.879697,212.78414 C771.879697,212.76114 771.878697,212.74214 771.878697,212.72114 C771.880697,206.43714 771.877697,200.15314 771.852697,193.87014 C771.850697,193.23314 771.832697,192.63214 771.826697,191.98814 C771.901697,186.86414 772.252697,183.83314 773.220697,179.75614 C774.298697,175.21714 772.599697,173.92214 769.664697,175.61214 C766.936697,177.18214 765.457697,178.52114 765.172697,176.36414 C764.889697,174.20814 762.269697,175.05114 759.318697,177.46614 C756.366697,179.88214 752.287697,182.28114 750.980697,183.07114 C750.245697,183.51514 749.437697,183.61514 749.162697,182.68914 C748.522697,180.53614 747.045697,179.69414 745.453697,179.43514 C744.544697,179.28814 743.423697,179.24514 742.530697,179.34914 C740.229697,179.61814 737.848697,181.55314 736.055697,183.01214 C733.544697,185.05514 732.076697,187.03514 732.140697,188.99314 C732.214697,191.22214 734.195697,191.27714 737.589697,189.97214 C739.891697,189.08714 740.334697,189.70814 740.326697,192.66514 C740.324697,196.07414 740.343697,215.20314 740.297697,221.56614 C740.295697,222.69714 740.742697,224.95514 742.845697,226.01114 C743.976697,226.58014 745.750697,226.77714 747.529697,226.44314 C749.446697,226.08414 750.929697,225.36014 751.811697,224.61314 C753.751697,222.97114 754.912697,220.83914 753.764697,219.63714 C752.062697,217.85414 750.565697,220.91914 750.552697,217.17314 L750.552697,217.17214 C750.546697,210.05014 750.531697,203.40714 750.590697,196.04914 C750.590697,194.37114 750.811697,192.94614 751.324697,191.69214 C752.093697,189.81114 754.165697,188.53014 756.476697,188.65014 C758.718697,188.76614 760.534697,190.10814 761.130697,192.35614 C761.470697,193.63814 761.606697,195.00714 761.612697,196.33914 C761.652697,205.50014 761.629697,211.18314 761.635697,220.34514 C761.635697,223.61614 763.362697,226.60814 767.030697,226.60814 C770.036697,226.60814 772.324697,226.14414 773.652697,225.25514 C775.674697,223.90114 777.201697,221.96214 778.475697,218.96114 C780.238697,214.80914 777.656697,214.24514 775.048697,215.64014 M718.399697,211.64514 C718.188697,214.87714 715.958697,216.80514 713.013697,216.74814 C710.182697,216.69214 708.339697,214.68114 708.128697,211.41814 C707.759697,205.72214 710.134697,202.99714 716.497697,201.84514 C717.444697,201.70514 718.439697,201.89714 718.449697,202.71214 C718.490697,205.88114 718.591697,208.68314 718.399697,211.64514 M733.623697,193.11914 C732.376697,193.05614 731.481697,194.32314 730.486697,194.62114 C729.273697,194.98414 728.793697,193.86214 728.592697,191.28714 L728.591697,191.29214 C728.381697,188.02514 727.206697,185.03614 724.954697,182.56314 C722.111697,179.44214 717.595697,177.87814 713.161697,177.96614 C709.707697,178.03514 705.144697,179.76114 703.257697,181.67714 C701.713697,183.24614 700.576697,184.93814 700.018697,186.97014 C699.685697,188.18414 699.514697,190.18514 699.671697,190.96714 C700.070697,192.64914 701.541697,193.11414 703.876697,193.33514 C708.076697,193.73214 708.845697,189.72814 708.845697,189.72814 C709.523697,187.47414 711.379697,186.63714 713.935697,186.81514 C715.947697,186.95414 717.876697,188.35814 718.268697,190.30514 C718.552697,191.71314 718.561697,193.06714 718.637697,194.47914 C718.658697,194.87114 718.525697,195.24714 717.951697,195.33314 C716.977697,195.47814 712.831697,195.94714 709.460697,196.95214 C704.601697,198.40014 702.154697,200.29514 700.124697,202.75314 C698.889697,204.24814 697.552697,206.39514 696.129697,208.99914 C695.091697,210.89414 692.130697,215.71114 693.238697,217.17314 C694.001697,218.17914 695.134697,217.72214 697.149697,216.83214 C698.241697,216.35014 698.540697,218.32314 699.650697,219.93514 L699.651697,219.93614 C701.482697,223.09014 704.554697,225.29714 708.368697,225.90514 C712.195697,226.51514 715.300697,225.49814 718.505697,222.93314 C719.183697,222.39014 719.682697,222.73214 719.750697,223.15614 C719.852697,223.80014 720.238697,224.73314 721.016697,225.38614 C722.257697,226.42714 724.563697,227.48014 728.394697,225.31614 C733.015697,222.70614 736.204697,215.55514 734.713697,215.04414 C733.224697,214.53414 729.626697,217.59714 729.136697,215.73014 C729.050697,214.18914 728.934697,210.41914 728.892697,208.98714 C729.023697,205.13514 731.033697,202.38714 732.675697,199.55714 C734.610697,196.22314 735.626697,193.21914 733.623697,193.11914" id="Fill-1"></path>
        </g>
    </g>
</svg>
