<svg class="ficticia-brand" version="1.1" id="Layer_1" xmlns="http://www.w3.org/2000/svg" xmlns:xlink="http://www.w3.org/1999/xlink" x="0px" y="0px"
	 viewBox="-89.8 -65.2 470.7 470.7" enable-background="new -89.8 -65.2 470.7 470.7" xml:space="preserve">
<circle opacity="0.95" fill="#FFE4B4" cx="145.5" cy="170.2" r="235.4"/>
<g>
	<path fill="#231F20" d="M27.2,172.9c0,0,4.8,4.4,22.6,2.5c19.6-2.4,27.7-7,38.8-16c1-0.7,0.6-0.3,0.6-0.3l1.1,1l0.4,2.2
		c1,0.1,2.5,1.2,2.7,2c0.2,0.8,1.4,1.7,1.4,2.2c0,0.8,1.3,1.2,1.2,2.8c-0.2,3.8-15.4,15.5-34.9,17.6c-20.8,2.3-25.9-2.6-28.7-5.1
		C29.7,179.3,24.2,178.9,27.2,172.9z"/>
	<path fill="#231F20" d="M48,162.4c0,0,1.6,1.2,3.3,1.7c1.6,1.5,5.3,3.8,5,4.6c-0.3,0.8-0.8,0.5,0,0c0.8-0.5,3.3,1.7,2.8,4.9
		c-0.5,3.2-7.5,52.8-8.5,74.5c-1,19.9-0.8,41.3,9.3,45.7c1.4,0.4-0.4,1.5-3.4,1.8c-5-1-12-1.9-14.4-7.9c0,0-7.6-14.2-3.1-60.4
		C42.7,187,47.4,172.7,48,162.4z"/>
	<path fill="#231F20" d="M22.9,216.1c0,0,34.9,23.9,57.1-11.1c2.2,1,2.2,1,2.2,1l0.4,0.5l1.5,0.2c0,0,0.9,0.6,1.6,1.2
		c0.7,0.6,2.1,0.8,1,8.6c-1.1,7.7-9.7,49.6-1,64.4c2.5-3,5-5.1,6.6-12.8c1.6-7.7,0.4-16.5,3.5-9.7c5.9,13.1-4,28.6-8.8,29.2
		s-12.9-5.4-14.2-8.6c-3.2-7.6-3.7-18.8,0.1-49.8c-6.1,4.8-31.9,9-42.4-1.4c-1-1-2.8-2.6-2.9-3C26,220.9,23,223.2,22.9,216.1z"/>
	<path fill="#231F20" d="M86.9,189.7c0,0,3.1,2.2,4.7,3.1c1.6,1.5,1.1,2,0.4,4.4c-0.7,2.4-3.1,7.1-3.1,7.1l-2.5-1.2l-1.4-0.9
		l-3.8-2.1C81.1,200.1,82.6,190.9,86.9,189.7z"/>
	<path fill="#231F20" d="M117.6,201.7c0,0,1.4,5.8,0.3,13.7c2.2,4.9,7.4,8.5,9.4,8.5c0.8-0.6-0.1-0.4,0.2-2.8
		c0.8-6.4,2.9-22.2-2.4-24.6c-6-2.7-12.8-7.4-16.8-3.3c-4,4.2-18.5,23-14.8,61c5.2,28.9,21.9,30.8,28.5,29.1
		c3.3-0.8,15.8-6.9,19.7-24c5-22.6,3-45.3,6-106.2c0,0,0.9-3.5-1.6-4.9c-0.7-0.1-3.7,1.1-7.6-0.1c-2.4-0.7-3.1-0.3-3.1-0.3l0,0
		c0,0-0.2,64.5-2,89.3c-1.9,25.4-8.3,43.1-18.5,40C100.9,273,97.9,224.2,117.6,201.7z"/>
	<path fill="#231F20" d="M99.7,166c0-0.9,0.2-2,4-4.9c7.8-6.1,15.5-4,14.6-3.8c-1.4,0.7-4,0.7-4.6,2.1c6.2-1.4,6.5-1.2,12.1-0.4
		c0.8,1-3.8,0-6.3,2.1c0,0,9.8-1.4,11.7-0.2c4.3,1.6,45.8,12.7,62.4,3.3c6-3.9,5-7.4,1.2-8.3c0,0-2.6-1.9-0.7-1.3
		c1.9,0.6,6.2,0.2,6.5,5.8c2-2.2,0.6-4.4-0.5-5.6c-0.4-1,7.8,0.7,3.9,11.9c-0.6,3.1-0.6,3.1-0.6,3.1s3.5-1.7,3.6-6.5
		c1.7,2.3,1.4,14.7-9.6,13c-9.2,2.1-28.3,9-68-6.6c-14.3-5.7-18.6-10-28.7-3.6C100.2,165.8,99.7,166,99.7,166z"/>
	<path fill="#231F20" d="M151.4,180.2c0,0,1.8-0.3,4.5-1.1c2.2-0.7,3.1-2.4,10.2-3c7.1-0.6,11.1,1,15-2.7c-1.6,4.4-3.7,8.9-9,11.5
		c0.9,0.6,2.7-0.4,5.2-0.9c-0.6,1.5-3.4,5.3-8.1,6.4c-3.2,0.7-5.6,0.8-7,0.6c-2.4-0.5-5.3-0.2-9.4-4.4c-1.4-0.6,1.6-1.4,3.3-1.2
		c0,0-0.5-0.4-1.8-1.7C152.4,181.9,151.8,181.9,151.4,180.2z"/>
	<path fill="#231F20" d="M157.4,195c0.8,0.1,2.9,2,5.1,3.1c2.2,1.1,2.6,5.1,2.6,11.3c-0.1,6.1-6.4,57.2-1.4,56.5
		c4.9-0.7,9.3-18.3,10.4-27.1c1.1-8.8,5.4,1.6,3.9,9.5c-1.6,8-7.5,24-16.6,24c-3.9-0.4-9.4-1.6-10.1-4c-0.7-2.4-2.3-12.1,0.8-38.1
		C155.2,204.1,155.7,194.7,157.4,195z"/>
	<path fill="#231F20" d="M211.3,217.8c-0.7,2.2-1.1,10.4-2.9,17.3c-4.5,18-10.8,24.4-18.4,21c-11.8-5.4-10.8-48.6,3.8-63.6
		c0,0,1,4.4,0,10.7c1.3,3.2,4.6,6.2,8.3,6.9c0.9,0.3,0.6-1.2,0.5-1.6c-1-7.3,1.9-18.7-2-20.5c-5.6-2.7-10.9-6.4-14.8-2.7
		s-14.8,15.3-15.3,52.2c2.5,25.5,17.3,26.5,23.6,25.8c15.3-1.6,27.6-20.6,28.5-42.9C223,216.9,212.4,216.6,211.3,217.8z"/>
	<polygon fill="#231F20" points="220.7,211 219.6,223.9 213,222.1 214.8,209 	"/>
	<path fill="#231F20" d="M227.5,169.8c-1.4-1.2-9.6-1.5-9.6-1.5s-6.7,1.6-9.8,18.5c-3.6,19.6,5.7,22.9,5.7,22.9l5.4,1.9
		c0,0,9.3,0.4,12.1-18.3C234.2,174.8,228.9,171,227.5,169.8z M224.8,205.8c-3.6,5.5-10.6,1.4-9.2-14.8c1-10.9,3.9-15.8,6.2-18
		c1,1.7,4.9,10.2-1.8,32.2c0.2,0.2,4.8-1.1,6.4-16.5c1.8,0.6,2,3.7,2.1,6.7C227.6,199.7,226.3,203.5,224.8,205.8z"/>
	<path fill="#231F20" d="M210.1,217.3"/>
	<path fill="#231F20" d="M277.8,226.9c3.1-7.8,2.8-13.1,1.4-18.2c-0.1-0.3-6.5,0.7-6.8,1.4c0,0,0.9,9.3-2.8,16.6
		c-4.1,8.1-5.2,1.6-4.9-7.3c0.8-4.7,1.4-14.2,1.7-32.6c0.1-9.9-2.5-11.7-3.3-12.5c-3.8-3.9-3.4-1.4-2.6,7.6c0.1-6.2-4.7-7.7-6.2-8.5
		c-1.5-0.8-2.4-2.2-5.3-2.3c-13.7,1.8-16.8,45.4-15.6,56.9c-7.8,26.7-18.1,11.2-18.1,11.2c-3.4-1.4-6.2,2-3.5,4.2
		c17,12.9,21.5,0.9,25-4.4c0.3,0.4,5.9,5.7,11.3,5c6.6-0.9,13.1-16.3,13.1-16.3s2.9,9.9,7.6,9.4C274.3,236.5,277.4,228,277.8,226.9z
		 M255.8,210c-2,18.7-4.4,22.9-8.6,26.6c-1.7-2.1-6.1-6.3-3.5-29.6c1.6-14.2,6.6-27.2,8.5-28.7C255.7,182.1,258.1,188.7,255.8,210z"
		/>
	<g>
		<path fill="#231F20" d="M37,127c0,0-3.1,9.6-3.4,15c-1.5,15.5,0.4,15.9,1.4,17.7c0,0,1.8-4,2.5-3.6c-0.8,6.2-0.3,7.1,1.5,8.9
			c1.2,0.5,1.2,0.7,1.2,0.7c0.7-7.4,4.2-13.9,14-13.1c11,0.8,6.7,11,14.9,9.8c7.5-1.1,10.1-8.9,22.3-12.6c-1.4-0.1-2.7-0.6-3.7-1.1
			c7.1-0.9,12.9-2.6,13.9-2.6c0,0,1.6-1.4-4.8-1.4l0.5-0.3c0,0,0.2-0.3,0.7-0.8c3.7,0.3,7.4,0.2,10.3-3c-2,0.4-4,0.1-6.3,0.2
			c3.6-1.7,9.6-3.4,19.6-3.5C140.4,137.1,37,127,37,127z"/>
		<path fill="#231F20" d="M40.3,165.6C40.3,165.6,40.3,165.7,40.3,165.6C40.3,165.7,40.3,165.6,40.3,165.6z"/>
	</g>
	<path fill="#231F20" d="M235.5,249.2c-0.1-1.5-8.8,10.7-17.6,3.7c-1.6-0.1-3.2,2-6,6.2c-1.3,2-12.1,22-42.8,19.4
		c-24.4-2-35.1,11.4-32,9.4c11.2-6.9,26.3-4.6,37-2.7c-7,1.3-13.7,1.4-17.1,1.8c15.5,6.1,31.7-2.6,40.7-1.6c-4.3,2.4-9,3.9-13.5,5.6
		c16.1,0,24.7-6.2,29.5-13c-2.9,5.6-7.1,9.1-11.2,12.7c19.4-6.8,19-23.2,18.3-30.4C228.4,260.3,236,254.9,235.5,249.2z"/>
	<path fill="#231F20" d="M219.4,148.6c-4.2,3.9-4,6.5-4.5,9.6c-0.5,3.1-0.9,6.1,1.7,4.1c2.1-1.5,4-2.6,10.3-5.5
		c6.4-2.9,9.4-3.7,9.4-3.7L219.4,148.6z"/>
	<path fill="#231F20" d="M276,141.8c-32.1-2.6-36-31.7-40.6-32.7c-25.1,6.8-68.2,9.1-110.1,5.4c-12.4-1.4-23.9-2.9-32-4.3
		c-0.1-0.2-0.2-0.5-0.3-0.8c9.5,0.5,57.4,3.1,20-0.4c-8.2-0.8-14.4-2.2-19.1-4c9.6,1.3,22.4,2.8,37.6,3.3
		c52.7,4.6,89.3-2.2,98.2-9.1c2.8-1.4,0.9-5.1,0.3-6.9c-11.9-33.4-6.9-55.5-9-61.4c-3.3-13.7-18.6-4.4-26.3-0.1
		c-41.3,22.9-61.5,1.5-77.2-9.1C96.8,7.6,94.9-1.2,85.9,4c-24.5,15.8-41.9,78-44.1,88.1c-1.4,6.6-1.4,9.6-3.3,9.2
		c-10.5-2.7-22.6-9.6-23.8-8.9c-2.7,1.4-6,9.4-1.8,23.2c5.1,16.9,23,20,75.1,21.4c73.7,2,116.2,19.6,167.4,16
		c12.8-0.9,22-2.9,23.9-5C279.2,147.9,278.2,142.4,276,141.8z"/>
</g>
</svg>
