<svg version="1.1" class="brand-neg-svg brand-neg-svg--42i" x="0px" y="0px" viewBox="0 1 48 45.9" enable-background="new 0 1 48 45.9" xml:space="preserve">
<polygon class="brand-neg-svg--42i__part brand-neg-svg--42i__1" points="0,19.8 16.7,35.8 16.7,34.2 16.7,34.2 0,18.2 "/>
<polygon class="brand-neg-svg--42i__part brand-neg-svg--42i__2" points="10.4,26.6 16.7,32.7 16.7,7.2 10.4,1 "/>
<polygon class="brand-neg-svg--42i__part brand-neg-svg--42i__3" points="10.4,47 16.7,47 16.7,37.4 10.4,31.3 "/>
<polygon class="brand-neg-svg--42i__part brand-neg-svg--42i__4" points="20.8,47 27.1,47 27.1,31.3 20.8,37.4 "/>
<polygon class="brand-neg-svg--42i__part brand-neg-svg--42i__5" points="6.3,7.2 0,1 0,16.7 6.3,22.8 "/>
<polygon class="brand-neg-svg--42i__part brand-neg-svg--42i__6" points="27.2,25 20.8,31 20.8,32.6 27.1,26.5 27.1,25 "/>
<polygon class="brand-neg-svg--42i__part brand-neg-svg--42i__7" points="27.2,1 20.8,7.2 20.8,14.6 27.1,20.7 27.1,1 "/>
<polygon class="brand-neg-svg--42i__part brand-neg-svg--42i__8" points="41.7,29.2 48,23.1 48,21.5 41.7,27.6 "/>
<polygon class="brand-neg-svg--42i__part brand-neg-svg--42i__9" points="41.7,26 48,19.8 48,12.2 41.7,18.3 "/>
<polygon class="brand-neg-svg--42i__part brand-neg-svg--42i__10" points="31.3,47 37.6,47 37.6,34.5 31.3,40.6 "/>
<polygon class="brand-neg-svg--42i__part brand-neg-svg--42i__11" points="41.7,7.2 41.7,14.6 48,8.5 48,7.2 "/>
<polygon class="brand-neg-svg--42i__part brand-neg-svg--42i__12" points="20.8,35.8 37.5,19.8 37.5,18.2 20.8,34.3 "/>
<polygon class="brand-neg-svg--42i__part brand-neg-svg--42i__13" points="31.3,22.6 37.6,16.5 37.6,7.2 31.3,1 "/>
<polygon class="brand-neg-svg--42i__part brand-neg-svg--42i__14" points="41.7,43.7 48,37.6 48,24.8 41.7,30.9 "/>
</svg>
