<svg version="1.1" xmlns="http://www.w3.org/2000/svg" xmlns:xlink="http://www.w3.org/1999/xlink" x="0px" y="0px" viewBox="166.5 196.5 626.9 599.9" enable-background="new 166.5 196.5 626.9 599.9" xml:space="preserve" class="brand">
    <path fill="#FFFFFF" d="M657.5,421.2L438.4,630v20.7l219.1-208.8V421.2z M385.6,630L166.5,421.2v20.7l219.1,208.8V630L385.6,630z M302.4,796.4h83.1V671.6l-83.1-79.3V796.4z M249.7,275.8l-83.1-79.3v203.9l83.1,79.3L249.7,275.8L249.7,275.8z M521.7,196.6 l-83.1,79.3v97.2l83.1,79.3V196.6z M521.7,508.9l-83.1,79.3V609l83.1-79.3V508.9z M385.6,609.4V275.8l-83.2-79.3v333.6L385.6,609.4z M710.3,565.1l83.1-79.3v-20.7l-83.1,79.3V565.1z M710.3,753l83.1-79.3v-167L710.3,586V753z M438.4,671.6v124.7h83.1v-204 L438.4,671.6z M710.3,275.9v97.2l83.1-79.3v-17.9H710.3L710.3,275.9z M710.3,522.8l83.1-79.3v-100l-83.1,79.3V522.8z M574.4,796.4 h83.1V634l-83.1,79.3V796.4z M574.4,196.6V478l83.1-79.3V275.8L574.4,196.6z"/>
</svg>
